<svg xmlns="http://www.w3.org/2000/svg" xmlns:xlink="http://www.w3.org/1999/xlink" aria-hidden="true" role="img" class="iconify iconify--logos" width="25.6" height="32" preserveAspectRatio="xMidYMid meet" viewBox="0 0 256 256"><path fill="#61DAFB" d="M128 256s51.2-43.418 51.2-102.4S128 0 128 0S76.8 43.418 76.8 153.6S128 256 128 256z"></path><path fill="#61DAFB" d="M128 256s-51.2-43.418-51.2-102.4S128 0 128 0S179.2 43.418 179.2 153.6S128 256 128 256z" transform="rotate(60 128 128)"></path><path fill="#61DAFB" d="M128 256s-51.2-43.418-51.2-102.4S128 0 128 0S179.2 43.418 179.2 153.6S128 256 128 256z" transform="rotate(120 128 128)"></path><circle cx="128" cy="128" r="25.6" fill="#61DAFB"></circle></svg>